<?xml version="1.0" encoding="iso-8859-1"?>
<!-- Generator: Adobe Illustrator 19.0.0, SVG Export Plug-In . SVG Version: 6.00 Build 0)  -->
<svg version="1.1" id="Capa_1" xmlns="http://www.w3.org/2000/svg" xmlns:xlink="http://www.w3.org/1999/xlink" x="0px" y="0px"
	 viewBox="0 0 491.52 491.52" style="enable-background:new 0 0 491.52 491.52;" xml:space="preserve">
<g>
	<circle style="fill:#45B39C;" cx="245.76" cy="245.76" r="245.76"/>
	<path style="fill:#45B39C;" d="M142.336,245.248h1.024C142.848,245.248,142.848,245.248,142.336,245.248L142.336,245.248z"/>
</g>
<path style="opacity:0.1;enable-background:new    ;" d="M142.336,245.248h1.024C142.848,245.248,142.848,245.248,142.336,245.248
	L142.336,245.248z"/>
<path style="fill:#45B39C;" d="M354.816,186.88c-1.536-1.536-2.56-3.072-4.096-4.096c-27.136-23.04-54.784-38.4-104.448-38.4
	c-47.104,0-81.92,17.408-109.568,38.4c-18.944,14.336-20.992,46.592-6.144,58.368l0,0l4.096,4.096h-7.68
	c-2.56,0-5.12,2.56-5.12,5.12v5.12c0,2.56,2.048,5.12,5.12,5.12h-2.56c-10.752,0-19.968,8.704-19.968,19.968v4.096
	c0,6.144,3.072,11.776,7.168,15.36l0,0l3.072,3.072c-0.512,3.072-1.024,5.632-1.024,8.704c0,9.728,3.072,19.456,9.216,26.112l0,0
	c1.024,1.024,2.048,2.048,3.072,3.072l148.48,148.48c98.816-11.776,179.2-82.432,206.336-175.616L354.816,186.88L354.816,186.88z
	 M142.336,245.248L142.336,245.248c0.512,0,1.024,0,1.536,0H142.336z"/>
<path style="opacity:0.1;enable-background:new    ;" d="M354.816,186.88c-1.536-1.536-2.56-3.072-4.096-4.096
	c-27.136-23.04-54.784-38.4-104.448-38.4c-47.104,0-81.92,17.408-109.568,38.4c-18.944,14.336-20.992,46.592-6.144,58.368l0,0
	l4.096,4.096h-7.68c-2.56,0-5.12,2.56-5.12,5.12v5.12c0,2.56,2.048,5.12,5.12,5.12h-2.56c-10.752,0-19.968,8.704-19.968,19.968
	v4.096c0,6.144,3.072,11.776,7.168,15.36l0,0l3.072,3.072c-0.512,3.072-1.024,5.632-1.024,8.704c0,9.728,3.072,19.456,9.216,26.112
	l0,0c1.024,1.024,2.048,2.048,3.072,3.072l148.48,148.48c98.816-11.776,179.2-82.432,206.336-175.616L354.816,186.88L354.816,186.88
	z M142.336,245.248L142.336,245.248c0.512,0,1.024,0,1.536,0H142.336z"/>
<path style="fill:#FCD462;" d="M115.712,302.592c-4.608,20.48,7.168,45.056,27.648,45.056h205.824
	c20.48,0,31.744-24.576,26.112-44.544L115.712,302.592z"/>
<path style="fill:#F6C358;" d="M115.712,302.592c-4.608,20.48,7.168,45.056,28.16,45.056h100.352v-44.032L115.712,302.592z"/>
<path style="fill:#DC8744;" d="M366.592,304.128H124.928c-10.752,0-19.968-8.704-19.968-19.968v-4.096
	c0-10.752,8.704-19.968,19.968-19.968h242.176c10.752,0,19.968,8.704,19.968,19.968v4.096
	C386.56,295.424,377.856,304.128,366.592,304.128z"/>
<path style="fill:#FCD462;" d="M349.184,245.248c26.112,0,22.016-45.056,1.024-62.464c-27.136-23.04-54.784-38.4-104.448-38.4
	c-47.104,0-81.92,17.408-109.568,38.4c-23.552,17.92-21.504,62.464,7.168,62.464H349.184z"/>
<path style="fill:#F6C358;" d="M245.76,144.384c-47.104,0-81.92,17.408-109.568,38.4c-23.552,17.92-21.504,62.464,7.168,62.464
	h102.4L245.76,144.384L245.76,144.384z"/>
<path style="fill:#EBF0F3;" d="M192.512,175.104L192.512,175.104c0-0.512,12.8-10.24,17.408-12.288
	c4.096-2.048,9.216,0.512,9.728,4.096l0,0c1.024,3.584-1.536,8.192-6.144,8.704C208.384,176.64,192.512,175.104,192.512,175.104z"/>
<path style="fill:#CE412D;" d="M361.472,260.608H126.976c-2.56,0-5.12-2.048-5.12-5.12v-5.12c0-2.56,2.048-5.12,5.12-5.12H360.96
	c2.56,0,5.12,2.048,5.12,5.12v5.12C366.08,258.56,364.032,260.608,361.472,260.608z"/>
<g>
	<path style="fill:#EBF0F3;" d="M236.032,158.72L236.032,158.72c0-0.512,12.8-10.24,17.408-12.288
		c4.096-2.048,9.216,0.512,9.728,4.096l0,0c1.024,3.584-1.536,8.192-6.144,8.704C251.904,160.256,236.032,158.72,236.032,158.72z"/>
	<path style="fill:#EBF0F3;" d="M160.768,195.584L160.768,195.584c0-0.512,12.8-10.24,17.408-12.288
		c4.096-2.048,9.216,0.512,9.728,4.096l0,0c1.024,3.584-1.536,8.192-6.144,8.704C176.64,197.12,160.768,195.584,160.768,195.584z"/>
	<path style="fill:#EBF0F3;" d="M204.8,195.584L204.8,195.584c0-0.512,12.8-10.24,17.408-12.288
		c4.096-2.048,9.216,0.512,9.728,4.096l0,0c1.024,3.584-1.536,8.192-6.144,8.704C220.16,197.12,204.8,195.584,204.8,195.584z"/>
	<path style="fill:#EBF0F3;" d="M238.592,181.76L238.592,181.76c0-0.512,12.8-10.24,17.408-12.288
		c4.096-2.048,9.216,0.512,9.728,4.096l0,0c1.024,3.584-1.536,8.192-6.144,8.704C254.464,183.296,238.592,181.76,238.592,181.76z"/>
	<path style="fill:#EBF0F3;" d="M186.368,216.064L186.368,216.064c0-0.512,12.8-10.24,17.408-12.288
		c4.096-2.048,9.216,0.512,9.728,4.096l0,0c1.024,3.584-1.536,8.192-6.144,8.704C202.24,217.6,186.368,216.064,186.368,216.064z"/>
</g>
<path style="fill:#CE412D;" d="M281.088,300.032c-4.096,0-8.192-1.024-11.776-2.56l-37.888-17.92
	c-3.584-1.536-7.68-1.536-10.752,0.512l-30.208,16.384c-9.728,5.12-20.992,5.12-30.72-0.512l-39.936-23.04
	c-2.56-1.536-3.584-5.12-2.048-7.68s5.12-3.584,7.68-2.048l39.936,23.04c6.144,3.584,13.312,3.584,19.456,0l30.208-16.384
	c6.656-3.584,14.336-3.584,20.992-0.512l37.888,17.92c5.12,2.56,11.776,2.048,16.384-1.536l22.016-15.872
	c7.68-5.632,17.408-6.144,25.6-1.536l38.4,20.48c2.56,1.536,3.584,5.12,2.56,7.68c-1.536,2.56-5.12,3.584-7.68,2.56l-38.4-20.48
	c-4.096-2.56-9.728-2.048-13.312,1.024l-22.528,15.36C292.352,297.984,286.72,300.032,281.088,300.032z"/>
<g>
</g>
<g>
</g>
<g>
</g>
<g>
</g>
<g>
</g>
<g>
</g>
<g>
</g>
<g>
</g>
<g>
</g>
<g>
</g>
<g>
</g>
<g>
</g>
<g>
</g>
<g>
</g>
<g>
</g>
</svg>
